<?xml version="1.0" encoding="utf-8"?>
<!-- Uploaded to: SVG Repo, www.svgrepo.com, Generator: SVG Repo Mixer Tools -->
<!DOCTYPE svg PUBLIC "-//W3C//DTD SVG 1.1//EN" "http://www.w3.org/Graphics/SVG/1.1/DTD/svg11.dtd">
<svg xmlns="http://www.w3.org/2000/svg" xmlns:xlink="http://www.w3.org/1999/xlink" version="1.1" id="Layer_1"  width="512" height="512" viewBox="0 0 512 512" enable-background="new 0 0 512 512" xml:space="preserve">
<g id="juice_1">
	<path fill="#424953" d="M442.091,43.809v-0.008L356.732,1.138l-0.016,0.008c-1.438-0.719-3.031-1.141-4.75-1.141   c-5.172,0-9.483,3.68-10.468,8.562l-25.953,127.981l20.906,4.242l23.202-114.35l72.905,36.438l0,0   c1.438,0.711,3.062,1.125,4.781,1.125c5.875,0,10.655-4.773,10.655-10.664C447.996,49.168,445.591,45.559,442.091,43.809z"/>
	<path fill="#8AC054" d="M351.967,117.338h-42.624l0,0c-0.031,0-0.031,0-0.047,0c-5.891,0-10.672,4.773-10.672,10.671   c0,5.883,4.781,10.664,10.672,10.664c0.016,0,0.016,0,0.047,0l0,0h42.624c5.875,0,10.656-4.781,10.656-10.664   C362.623,122.112,357.842,117.338,351.967,117.338z"/>
	<g>
		<path fill="#8AC054" d="M64.004,501.339c0,5.875,4.773,10.656,10.664,10.656h234.675c5.875,0,10.656-4.781,10.656-10.656V138.674    c0-5.891-4.781-10.664-10.656-10.664H74.667c-5.891,0-10.664,4.773-10.664,10.664V501.339z"/>
	</g>
	<path opacity="0.1" d="M64.004,138.674v4.82l34.179,44.507c1.992,2.594,5.062,4.125,8.328,4.172c0.047,0,0.094,0,0.133,0   c3.219,0,6.266-1.453,8.297-3.961l34.663-42.827c3.703-4.578,3-11.297-1.578-15c-4.578-3.71-11.296-3-15.007,1.578l-26.156,32.312   L79.011,128.01h-4.344C68.777,128.01,64.004,132.783,64.004,138.674z"/>
	<g>
		<path fill="#9ED36A" d="M128.002,501.339c0,5.875,4.773,10.656,10.664,10.656h255.987c5.906,0,10.688-4.781,10.688-10.656V138.674    c0-5.891-4.781-10.664-10.688-10.664H138.667c-5.891,0-10.664,4.773-10.664,10.664V501.339z"/>
	</g>
	<g opacity="0.2">
		<path fill="#FFFFFF" d="M394.653,128.01h-21.312c5.875,0,10.656,4.773,10.656,10.664v362.665c0,5.875-4.781,10.656-10.656,10.656    h21.312c5.906,0,10.688-4.781,10.688-10.656V138.674C405.341,132.783,400.56,128.01,394.653,128.01z"/>
	</g>
	<path fill="#424953" d="M298.749,235.297c0-5.89-4.781-10.664-10.688-10.664c-2.406,0-4.656,0.82-6.438,2.188l-0.016-0.008   c-2.891,2.203-28.194,22.226-25.546,46.468l21.218-2.32c-1.156-10.469,12.438-23.461,17.281-27.188l-0.016-0.008   C297.093,241.812,298.749,238.75,298.749,235.297z"/>
	<g>
		<path fill="#EC5564" d="M266.664,264.984c-50.233-22.086-84.311,12.609-84.311,61.732c0,49.109,46.366,92.561,84.311,75.452    c37.944,17.108,84.303-26.343,84.303-75.452C350.967,277.594,316.905,242.898,266.664,264.984z"/>
	</g>
	<g opacity="0.2">
		<g>
			<path fill="#FFFFFF" d="M285.202,259.195c27.547,5.5,44.453,32.929,44.453,67.521c0,37.125-26.516,71.015-55.844,77.937     c36.375,9.203,77.155-31.874,77.155-77.937C350.967,283.921,325.093,252.07,285.202,259.195z"/>
		</g>
	</g>
</g>
</svg>